<?xml version="1.0" encoding="UTF-8"?>
<svg xmlns="http://www.w3.org/2000/svg" xmlns:xlink="http://www.w3.org/1999/xlink" width="849" height="341" viewBox="115 500 849 341">
<path fill-rule="nonzero" fill="rgb(0%, 18.431091%, 52.941895%)" fill-opacity="1" d="M 918.082031 620.851562 C 914.976562 623.75 913.429688 627.257812 913.429688 631.351562 C 913.429688 635.488281 914.964844 639.015625 918.054688 641.945312 C 921.175781 644.847656 924.933594 646.3125 929.378906 646.3125 C 933.820312 646.3125 937.597656 644.847656 940.714844 641.945312 C 943.808594 639.015625 945.367188 635.488281 945.367188 631.351562 C 945.367188 627.257812 943.808594 623.75 940.714844 620.851562 C 937.582031 617.949219 933.792969 616.488281 929.378906 616.488281 C 924.976562 616.488281 921.203125 617.949219 918.082031 620.851562 M 942.554688 643.605469 C 938.933594 646.988281 934.519531 648.671875 929.378906 648.671875 C 924.226562 648.671875 919.851562 646.988281 916.246094 643.605469 C 912.636719 640.234375 910.839844 636.148438 910.839844 631.351562 C 910.839844 626.625 912.652344 622.5625 916.285156 619.191406 C 919.90625 615.84375 924.265625 614.160156 929.378906 614.160156 C 934.519531 614.160156 938.933594 615.84375 942.554688 619.191406 C 946.1875 622.542969 948 626.605469 948 631.351562 C 948 636.140625 946.1875 640.222656 942.554688 643.605469 M 932.886719 624.832031 C 931.984375 624.359375 930.535156 624.113281 928.542969 624.113281 L 925.492188 624.113281 L 925.492188 630.988281 L 928.722656 630.988281 C 930.242188 630.988281 931.382812 630.839844 932.136719 630.554688 C 933.542969 630.035156 934.238281 629.058594 934.238281 627.59375 C 934.238281 626.21875 933.792969 625.304688 932.886719 624.832031 M 929.015625 621.84375 C 931.566406 621.84375 933.417969 622.074219 934.601562 622.53125 C 936.71875 623.339844 937.777344 624.929688 937.777344 627.308594 C 937.777344 629.011719 937.109375 630.253906 935.769531 631.054688 C 935.046875 631.476562 934.074219 631.777344 932.792969 631.972656 C 934.40625 632.199219 935.578125 632.828125 936.328125 633.820312 C 937.066406 634.820312 937.429688 635.816406 937.429688 636.769531 L 937.429688 638.144531 C 937.429688 638.585938 937.457031 639.054688 937.484375 639.558594 C 937.511719 640.066406 937.582031 640.394531 937.664062 640.554688 L 937.777344 640.78125 L 934.421875 640.78125 C 934.40625 640.726562 934.390625 640.660156 934.363281 640.585938 C 934.363281 640.539062 934.335938 640.472656 934.324219 640.394531 L 934.238281 639.773438 L 934.238281 638.265625 C 934.238281 636.074219 933.597656 634.617188 932.304688 633.925781 C 931.566406 633.5 930.226562 633.304688 928.335938 633.304688 L 925.492188 633.304688 L 925.492188 640.78125 L 921.886719 640.78125 L 921.886719 621.84375 Z M 929.015625 621.84375 "/>
<path fill-rule="nonzero" fill="rgb(0%, 18.431091%, 52.941895%)" fill-opacity="1" d="M 652.21875 658.578125 C 652.21875 649.640625 651.8125 644.226562 651.003906 642.320312 C 650.199219 640.429688 647.957031 639.496094 644.292969 639.488281 C 640.714844 639.488281 638.375 640.578125 637.300781 642.753906 C 636.3125 644.933594 635.839844 650.210938 635.839844 658.578125 L 635.839844 718.609375 C 635.839844 727.34375 636.382812 732.792969 637.453125 734.992188 C 638.527344 737.179688 640.839844 738.265625 644.40625 738.265625 C 647.914062 738.265625 650.074219 737.277344 650.867188 735.308594 C 651.757812 733.273438 652.203125 728.394531 652.21875 720.675781 Z M 586.03125 608.433594 L 635.324219 608.433594 L 635.324219 613.824219 C 635.324219 613.824219 644.109375 607.980469 651.757812 607.074219 C 659.40625 606.179688 696.550781 598.523438 700.140625 641.734375 C 700.140625 641.734375 702.929688 720.523438 699.585938 746.496094 C 697.59375 761.835938 678.414062 791.359375 637.132812 769.335938 L 637.132812 825.8125 L 586.03125 825.8125 Z M 533.21875 607.960938 C 533.21875 597.769531 532.355469 591.277344 530.671875 588.460938 C 529.082031 585.582031 525.726562 584.140625 520.628906 584.128906 C 516.28125 584.128906 512.941406 585.320312 510.585938 587.65625 C 508.34375 589.921875 507.230469 596.6875 507.230469 607.960938 L 507.230469 710.328125 C 507.230469 723.046875 507.953125 730.894531 509.402344 733.890625 C 510.976562 736.863281 514.527344 738.355469 520.03125 738.355469 C 525.671875 738.355469 529.277344 736.636719 530.867188 733.199219 C 532.4375 729.789062 533.21875 721.605469 533.21875 708.703125 Z M 579.054688 679.390625 C 579.054688 702.269531 578.566406 718.488281 577.578125 728.046875 C 576.703125 737.523438 573.761719 746.191406 568.832031 754.058594 C 563.957031 761.933594 557.339844 767.984375 548.984375 772.191406 C 540.613281 776.414062 530.867188 778.515625 519.75 778.515625 C 509.207031 778.515625 499.710938 776.554688 491.269531 772.625 C 482.898438 768.585938 476.183594 762.59375 471.046875 754.628906 C 465.949219 746.648438 462.898438 737.988281 461.9375 728.617188 C 460.949219 719.234375 460.460938 702.839844 460.460938 679.390625 L 460.460938 640.453125 C 460.460938 617.585938 460.921875 601.414062 461.8125 591.945312 C 462.785156 582.390625 465.699219 573.683594 470.570312 565.804688 C 475.515625 557.921875 482.175781 551.871094 490.542969 547.671875 C 498.902344 543.441406 508.636719 541.347656 519.75 541.347656 C 530.308594 541.347656 539.765625 543.355469 548.121094 547.386719 C 556.5625 551.320312 563.332031 557.265625 568.441406 565.238281 C 573.566406 573.222656 576.617188 581.867188 577.578125 591.246094 C 578.566406 600.628906 579.054688 617.023438 579.054688 640.453125 Z M 767.175781 698.445312 C 752.886719 709.445312 751.492188 713.855469 751.492188 731.601562 C 751.492188 735.390625 751.492188 745.382812 753.082031 748.765625 C 754.375 751.546875 756.730469 752.652344 759.710938 752.652344 C 768.902344 752.652344 767.175781 739.980469 767.175781 733.683594 Z M 707.148438 663.5 C 705.8125 656.910156 706.355469 648.085938 707.929688 641.652344 C 714.53125 614.433594 738.652344 607.851562 763.832031 607.851562 C 787.066406 607.851562 813.527344 620.242188 813.304688 647.011719 C 812.914062 690.894531 812.09375 734.777344 811.496094 778.65625 L 765.882812 778.65625 L 765.882812 773.769531 C 739.167969 784.453125 720.949219 780.863281 708.179688 761.65625 C 701.382812 750.257812 703.609375 727.964844 703.804688 722.492188 C 704.460938 703.441406 713.136719 688.679688 730.074219 679.726562 C 741.101562 673.902344 764.210938 672.195312 766.660156 657.570312 C 768.707031 645.253906 759.65625 631.535156 751.203125 644.6875 L 749.90625 664.53125 Z M 870.714844 614.328125 L 870.714844 620.363281 C 874.53125 612.242188 897.082031 612.425781 904.335938 611.949219 L 904.335938 657.390625 C 899.515625 657.390625 894.835938 656.765625 889.449219 657.390625 C 884.085938 658.027344 879.28125 659.921875 876.691406 661.292969 C 873.75 662.878906 871.300781 664.710938 870.089844 668.179688 C 868.863281 671.664062 868.359375 679.121094 868.359375 679.121094 L 868.359375 779.46875 L 820.144531 779.46875 L 820.144531 614.328125 Z M 870.714844 614.328125 "/>
<path fill-rule="nonzero" fill="rgb(0%, 18.431091%, 52.941895%)" fill-opacity="1" d="M 346.113281 663.871094 C 346.113281 663.871094 359.652344 590.441406 286.378906 570.445312 C 286.378906 570.445312 239.902344 560.960938 195.820312 616.460938 L 169.484375 647.921875 L 131.277344 647.921875 L 131.277344 609.695312 C 131.277344 609.695312 176.710938 542.753906 228.621094 524.101562 C 280.527344 505.449219 368.828125 515.820312 395.152344 612.40625 Z M 199.84375 629.601562 C 199.84375 629.601562 186.308594 703.007812 259.566406 723.03125 C 259.566406 723.03125 306.042969 732.507812 350.140625 676.988281 L 376.464844 645.546875 L 414.679688 645.546875 L 414.679688 683.753906 C 414.679688 683.753906 369.234375 750.703125 317.339844 769.359375 C 265.429688 788.011719 177.128906 777.632812 150.792969 681.042969 Z M 212.171875 648.132812 C 212.171875 613.941406 239.59375 586.222656 273.410156 586.222656 C 307.226562 586.222656 334.636719 613.941406 334.636719 648.132812 C 334.636719 682.328125 307.226562 710.046875 273.410156 710.046875 C 239.59375 710.046875 212.171875 682.328125 212.171875 648.132812 "/>
</svg>
